<svg xmlns="http://www.w3.org/2000/svg" viewBox="0 0 256 256" focusable="false" color="var(--token-409d7760-ee17-4e6f-a637-f2b2ddc77f86, rgb(70, 70, 70))" style="user-select: none; width: 100%; height: 100%; display: inline-block; fill: var(--token-409d7760-ee17-4e6f-a637-f2b2ddc77f86, rgb(70, 70, 70)); color: var(--token-409d7760-ee17-4e6f-a637-f2b2ddc77f86, rgb(70, 70, 70)); flex-shrink: 0;"><g color="var(--token-409d7760-ee17-4e6f-a637-f2b2ddc77f86, rgb(70, 70, 70))" weight="regular"><path d="M208,32H184V24a8,8,0,0,0-16,0v8H88V24a8,8,0,0,0-16,0v8H48A16,16,0,0,0,32,48V208a16,16,0,0,0,16,16H208a16,16,0,0,0,16-16V48A16,16,0,0,0,208,32ZM72,48v8a8,8,0,0,0,16,0V48h80v8a8,8,0,0,0,16,0V48h24V80H48V48ZM208,208H48V96H208V208Z"></path></g></svg>